<?xml version="1.0" encoding="UTF-8"?>
<svg width="248px" height="249px" viewBox="0 0 248 249" version="1.1" xmlns="http://www.w3.org/2000/svg" xmlns:xlink="http://www.w3.org/1999/xlink">
    <title>favicon</title>
    <g id="Page-1" stroke="none" stroke-width="1" fill="none" fill-rule="evenodd">
        <path d="M181.063953,124.25 C212.820327,124.25 238.563953,149.993627 238.563953,181.75 C238.563953,213.506373 212.820327,239.25 181.063953,239.25 L92.8081395,239.25 L92.8081395,124.25 L181.063953,124.25 Z M176.98702,153 L122.761628,153 L122.761628,210.5 L176.98702,210.5 C192.865207,210.5 205.73702,197.628187 205.73702,181.75 C205.73702,165.871813 192.865207,153 176.98702,153 L176.98702,153 Z" id="Combined-Shape-Copy-5" fill="#318BFC"></path>
        <path d="M67.7099784,40.6046512 L67.2456011,40.6084133 C51.9508598,40.8563942 39.628583,53.3322094 39.628583,68.6860465 C39.628583,84.0398837 51.9508598,96.5156988 67.2456011,96.7636798 L67.7099784,96.7674419 L122.603975,96.7666512 L122.603975,82.5308275 L74.8313953,82.5308275 L74.8313953,53.3677048 L153.19186,53.3677048 L153.191047,125.25 L64.9360465,125.25 C33.1796734,125.25 7.43604651,99.5063731 7.43604651,67.75 C7.43604651,35.9936269 33.1796734,10.25 64.9360465,10.25 L153.191047,10.25 L153.19186,40.6046512 L67.7099784,40.6046512 Z" id="Combined-Shape-Copy-4" fill="#318BFC"></path>
    </g>
</svg>